<svg id="Layer_1" data-name="Layer 1" xmlns="http://www.w3.org/2000/svg" viewBox="0 0 700 700"><defs><style>.cls-1{fill:none;stroke:#000;stroke-linecap:round;stroke-miterlimit:10;stroke-width:6px;}</style></defs><title>Marbles Icon Black </title><circle class="cls-1" cx="350.49" cy="348.14" r="158.64"/><ellipse class="cls-1" cx="409.92" cy="238.94" rx="33.9" ry="64.02" transform="translate(15.27 502.34) rotate(-63.96)"/><path class="cls-1" d="M498.39,291.57c2.27,9.56,1.71,18.6-2.16,26.51-15.06,30.82-74.44,32.74-132.64,4.31s-93.17-76.47-78.11-107.29c5.21-10.66,15.73-17.87,29.67-21.55"/><path class="cls-1" d="M274,209.14S165.17,328.71,289,377.31C402.75,422,368.47,505.77,368.47,505.77"/><path class="cls-1" d="M372.85,503.26c31.87-31.92,81-122.84,12.55-145.81C227.36,304.42,282,205,282,205"/><path class="cls-1" d="M194.09,321.53s5.09,106.85,71.63,114.1S420.92,362.13,487,429"/></svg>